<?xml version="1.0" encoding="utf-8"?>
<!-- Generator: Adobe Illustrator 24.0.1, SVG Export Plug-In . SVG Version: 6.00 Build 0)  -->
<svg version="1.1" id="图层_1" xmlns="http://www.w3.org/2000/svg" xmlns:xlink="http://www.w3.org/1999/xlink" x="0px" y="0px"
	 viewBox="0 0 34 34" style="enable-background:new 0 0 34 34;" xml:space="preserve">
<style type="text/css">
	.st0{fill:#FFFFFF;}
</style>
<path class="st0" d="M17.6,20.7l-4.2-4.2l1.8-1.8c0.3-0.3,0.3-0.9,0-1.2c-0.3-0.3-0.9-0.3-1.2,0c0,0,0,0,0,0l-1.8,1.8l-2.4-2.4
	l-2.9,2.9C4,18.6,3.8,23.1,6.3,26.3L3,29.8c-0.3,0.3-0.3,0.9,0,1.2c0.3,0.3,0.9,0.3,1.2,0c0,0,0,0,0,0l3.3-3.3
	c1.4,1.2,3.1,1.8,4.8,1.8c2.1,0,4.2-0.9,5.6-2.4l2.9-2.9l-2.3-2.3l2-2c0.3-0.3,0.3-0.8,0-1.2c-0.3-0.3-0.7-0.3-1-0.1c0,0,0,0,0,0
	L17.6,20.7L17.6,20.7z M29.8,3l-3.1,3c-1.4-1.2-3.1-1.8-4.8-1.8c-2.1,0-4.2,0.9-5.6,2.4l-2.9,2.7l11.3,11.3l2.7-2.7
	c2.8-2.8,3.1-7.3,0.6-10.5L31,4.2c0.3-0.3,0.3-0.9,0-1.2C30.7,2.6,30.1,2.6,29.8,3L29.8,3z"/>
</svg>
