<?xml version="1.0" encoding="utf-8"?>
<!-- Generator: Adobe Illustrator 24.0.1, SVG Export Plug-In . SVG Version: 6.00 Build 0)  -->
<svg version="1.1" id="图层_1" xmlns="http://www.w3.org/2000/svg" xmlns:xlink="http://www.w3.org/1999/xlink" x="0px" y="0px"
	 viewBox="0 0 18 18" style="enable-background:new 0 0 18 18;" xml:space="preserve">
<style type="text/css">
	.st0{fill:#040000;}
</style>
<path id="路径_2" class="st0" d="M9.9,9l5.6,5.6c0.3,0.2,0.3,0.6,0,0.9c-0.2,0.3-0.6,0.3-0.9,0c0,0,0,0,0,0L9,9.9l-5.6,5.6
	c-0.3,0.2-0.7,0.2-0.9,0c-0.2-0.2-0.2-0.6,0-0.9L8.1,9L2.5,3.4c-0.2-0.3-0.2-0.7,0-0.9c0.2-0.2,0.6-0.2,0.8,0L9,8.1l5.6-5.6
	c0.2-0.2,0.6-0.2,0.9,0c0.2,0.2,0.2,0.6,0,0.9l0,0L9.9,9z"/>
</svg>
