<?xml version="1.0" encoding="utf-8"?>
<!-- Generator: Adobe Illustrator 24.0.1, SVG Export Plug-In . SVG Version: 6.00 Build 0)  -->
<svg version="1.1" id="图层_1" xmlns="http://www.w3.org/2000/svg" xmlns:xlink="http://www.w3.org/1999/xlink" x="0px" y="0px"
	 viewBox="0 0 34 34" style="enable-background:new 0 0 34 34;" xml:space="preserve">
<style type="text/css">
	.st0{fill:#FFFFFF;}
</style>
<path class="st0" d="M29.4,4.5c-0.5-0.5-1.1-0.7-1.8-0.7c-0.7,0-1.4,0.3-1.9,0.8l-9.5,8.6c-0.9,0.8-1.4,2-1.4,3.1
	c0,1.2,0.5,2.4,1.3,3.3c0.8,0.9,2,1.4,3.2,1.4c1.2,0,2.4-0.5,3.2-1.3c1.3-1.2,3.6-4.9,6.9-11.2c0.4-0.7,0.6-1.5,0.7-2.2
	C30.2,5.6,29.9,4.9,29.4,4.5z M15.7,21c-0.6-0.5-1.2-1.2-1.6-1.9c-0.7,0-1.3,0.1-1.8,0.2c-0.5,0.1-1,0.2-1.5,0.4
	c-0.5,0.2-0.9,0.4-1.3,0.7c-0.4,0.3-0.7,0.7-1,1.1c-0.3,0.5-0.6,1.1-0.8,1.6c-0.1,0.3-0.4,0.6-0.8,0.5c-0.2,0-0.5-0.1-0.7-0.2
	c-0.3-0.2-0.6-0.3-0.9-0.5c-0.3-0.2-0.6-0.4-0.9-0.6l-0.6-0.4c0,1.1,0.1,2.2,0.4,3.2c0.3,1,0.7,1.9,1.3,2.7c0.6,0.8,1.3,1.4,2.2,1.9
	c1,0.5,2.1,0.7,3.2,0.7c1.9,0.1,3.7-0.6,5.1-2c1.3-1.3,2-3.2,1.9-5.1l0-1C17.1,21.9,16.4,21.6,15.7,21L15.7,21z"/>
</svg>
