<?xml version="1.0" encoding="utf-8"?>
<!-- Generator: Adobe Illustrator 24.0.1, SVG Export Plug-In . SVG Version: 6.00 Build 0)  -->
<svg version="1.1" id="图层_1" xmlns="http://www.w3.org/2000/svg" xmlns:xlink="http://www.w3.org/1999/xlink" x="0px" y="0px"
	 viewBox="0 0 34 34" style="enable-background:new 0 0 34 34;" xml:space="preserve">
<style type="text/css">
	.st0{fill:#383838;}
</style>
<path class="st0" d="M29,24c0.6,0.9,1,1.6,0.5,2.8c-0.5,1.2-4.4,3.7-9.5,4.2l-3.2-1.6l-3.1,1.6c-5-0.5-8.8-3-9.3-4.2
	c-0.5-1.2-0.1-1.9,0.5-2.8c0.6-0.9,1.2-9.2,0.5-10.3c-0.7-1.1-0.5-2.3-0.5-2.3C8.9,2.6,16.8,2.6,17,2.6c1.3-0.2,6.6,0.1,12,8.9
	c0,0,0.2,1.3-0.5,2.3C27.8,14.9,28.5,23.1,29,24z M8.5,14.7L9,17.5c3.4,3.8,6.7,1.4,6.7,1.4C12.6,14.8,8.5,14.7,8.5,14.7z M18.2,19
	c0,0,3.3,2.4,6.9-1.4l0.5-2.9C25.5,14.7,21.3,14.8,18.2,19z"/>
</svg>
