<?xml version="1.0" encoding="utf-8"?>
<!-- Generator: Adobe Illustrator 24.0.1, SVG Export Plug-In . SVG Version: 6.00 Build 0)  -->
<svg version="1.1" id="图层_1" xmlns="http://www.w3.org/2000/svg" xmlns:xlink="http://www.w3.org/1999/xlink" x="0px" y="0px"
	 viewBox="0 0 34 34" style="enable-background:new 0 0 34 34;" xml:space="preserve">
<style type="text/css">
	.st0{fill:url(#SVGID_1_);}
</style>
<linearGradient id="SVGID_1_" gradientUnits="userSpaceOnUse" x1="6.891" y1="25.3734" x2="30.0271" y2="7.2975">
	<stop  offset="0" style="stop-color:#D1201A"/>
	<stop  offset="1" style="stop-color:#ECB465"/>
</linearGradient>
<path class="st0" d="M19.8,3.1L19.5,3l-4,1.5l2.1,5.8C17,10.1,16.4,10,15.8,10c-5.5-0.2-10.2,4.2-10.4,9.7
	C5.3,25.3,9.7,30,15.2,30.1c0.1,0,0.2,0,0.3,0c5.4,0,9.9-4.3,10.1-9.8v-0.3c0-1.8-0.4-3.5-1.3-5l-2.5-6.7l5.6,1.5l1.1-4.1l0-0.4
	L19.8,3.1z M10.5,20.1c0-1.4,0.5-2.8,1.5-3.8c1-1,2.3-1.6,3.8-1.6c0.1,0,0.1,0,0.2,0c1.5,0,2.9,0.6,3.9,1.6c0,0,0.1,0.1,0.1,0.1
	c0.6,0.6,1,1.3,1.2,2.1l0,0c0,0.1,0,0.1,0.1,0.2c0.1,0.4,0.2,0.8,0.2,1.2c0.1,3-2.3,5.5-5.3,5.6c-3,0.1-5.5-2.3-5.6-5.3V20.1z"/>
</svg>
