<?xml version="1.0" encoding="utf-8"?>
<!-- Generator: Adobe Illustrator 24.0.1, SVG Export Plug-In . SVG Version: 6.00 Build 0)  -->
<svg version="1.1" id="图层_1" xmlns="http://www.w3.org/2000/svg" xmlns:xlink="http://www.w3.org/1999/xlink" x="0px" y="0px"
	 viewBox="0 0 34 34" style="enable-background:new 0 0 34 34;" xml:space="preserve">
<style type="text/css">
	.st0{fill:url(#路径_18_1_);}
	.st1{fill:url(#路径_19_1_);}
</style>
<linearGradient id="路径_18_1_" gradientUnits="userSpaceOnUse" x1="30.6743" y1="24.7974" x2="5.1743" y2="10.075">
	<stop  offset="0" style="stop-color:#FF6200"/>
	<stop  offset="0.4379" style="stop-color:#FE6402"/>
	<stop  offset="0.5974" style="stop-color:#FC6B08"/>
	<stop  offset="0.7114" style="stop-color:#F97712"/>
	<stop  offset="0.8037" style="stop-color:#F48721"/>
	<stop  offset="0.8828" style="stop-color:#EE9E35"/>
	<stop  offset="0.9518" style="stop-color:#E6B84D"/>
	<stop  offset="1" style="stop-color:#DFD062"/>
</linearGradient>
<path id="路径_18" class="st0" d="M31.2,20.3v-0.4L28,8.8c-0.4-1.8-1.9-3-3.7-3.1H9.9C8.2,5.8,6.6,7,6.1,8.6L3,19.8v0.4
	c-0.2,0.6-0.2,1.2-0.3,1.8c0,2.5,2.1,4.6,4.6,4.6H27c2.5,0,4.6-2.1,4.6-4.6C31.6,21.4,31.5,20.9,31.2,20.3z M15.4,10.1H16
	c0.4-0.8,1.2-1.2,2.1-1.2c1.2,0,2.3,0.9,2.4,2.1c0.8,0.3,1.3,1,1.3,1.8c-0.1,1.2-1.1,2.2-2.3,2.1c0,0,0,0,0,0h-0.5
	c-0.4,0-0.7-0.3-0.7-0.7s0.3-0.7,0.7-0.7h0.5c0.5,0,1-0.4,1-0.8c0-0.4-0.3-0.7-0.8-0.8c-0.4-0.1-0.6-0.5-0.5-0.9c0,0,0,0,0,0V11
	c0-0.4-0.4-0.8-1.1-0.8c-0.5,0-1,0.3-1,0.7c-0.1,0.4-0.5,0.6-0.9,0.5c0,0,0,0,0,0c-0.2-0.1-0.4-0.2-0.7-0.1c-0.9,0-1.6,0.5-1.6,1.2
	c0,0.7,0.7,1.2,1.6,1.2h0.4c0.4,0,0.7,0.3,0.7,0.7s-0.3,0.7-0.7,0.7h-0.4c-1.6,0-2.9-0.9-2.9-2.4C12.7,11.1,13.9,10,15.4,10.1
	C15.4,10.1,15.4,10.1,15.4,10.1L15.4,10.1z M27,25.3H7.3c-1.8,0-3.3-1.4-3.3-3.2c0,0,0,0,0-0.1c0-0.2,0-0.5,0.1-0.7v-0.1
	c0.3-1.5,1.6-2.5,3.2-2.5H27c1.6,0,2.9,1.1,3.1,2.6c0,0.3,0.1,0.4,0.1,0.7C30.3,23.8,28.8,25.3,27,25.3C27,25.3,27,25.3,27,25.3
	L27,25.3z"/>
<linearGradient id="路径_19_1_" gradientUnits="userSpaceOnUse" x1="28.9566" y1="22.0337" x2="7.9571" y2="22.0337">
	<stop  offset="0" style="stop-color:#FF6200"/>
	<stop  offset="1" style="stop-color:#E8B045"/>
</linearGradient>
<path id="路径_19" class="st1" d="M15.2,21.4H8.6C8.3,21.4,8,21.7,8,22s0.3,0.7,0.7,0.7h6.6c0.4,0,0.7-0.3,0.7-0.7
	S15.5,21.4,15.2,21.4L15.2,21.4z M27,20.1c-1.1,0-2,0.9-2,2s0.9,2,2,2c1.1,0,2-0.9,2-2l0,0C28.9,21,28.1,20.1,27,20.1z M27,22.7
	c-0.4,0-0.7-0.3-0.7-0.7s0.3-0.7,0.7-0.7c0.4,0,0.7,0.3,0.7,0.7C27.7,22.4,27.4,22.7,27,22.7C27,22.7,27,22.7,27,22.7z"/>
</svg>
