<?xml version="1.0" encoding="utf-8"?>
<!-- Generator: Adobe Illustrator 24.0.1, SVG Export Plug-In . SVG Version: 6.00 Build 0)  -->
<svg version="1.1" id="图层_1" xmlns="http://www.w3.org/2000/svg" xmlns:xlink="http://www.w3.org/1999/xlink" x="0px" y="0px"
	 viewBox="0 0 34 34" style="enable-background:new 0 0 34 34;" xml:space="preserve">
<style type="text/css">
	.st0{fill:#FFFFFF;}
</style>
<path class="st0" d="M32,29.2l-5-5c2.2-2.9,3.2-6.5,2.8-10.1c-0.4-3.8-2.3-7.2-5.2-9.5c-6.1-4.9-15.1-3.9-20,2.2
	c-4.9,6.1-3.9,15.1,2.2,20C11.9,30.9,19,31,24.3,27l4.9,4.9c0.4,0.4,0.9,0.6,1.4,0.6c0.5,0,1-0.2,1.4-0.6C32.7,31.2,32.7,30,32,29.2
	z M25.9,15.4v0.3c-0.1,5.6-4.7,10.1-10.2,10.1c0,0-0.1,0-0.1,0C9.9,25.7,5.4,21.1,5.5,15.4C5.5,9.8,10.1,5.3,15.7,5.3
	c0,0,0.1,0,0.1,0C21.4,5.4,25.9,9.9,25.9,15.4z"/>
</svg>
