<?xml version="1.0" encoding="utf-8"?>
<!-- Generator: Adobe Illustrator 24.0.1, SVG Export Plug-In . SVG Version: 6.00 Build 0)  -->
<svg version="1.1" id="图层_1" xmlns="http://www.w3.org/2000/svg" xmlns:xlink="http://www.w3.org/1999/xlink" x="0px" y="0px"
	 viewBox="0 0 34 34" style="enable-background:new 0 0 34 34;" xml:space="preserve">
<style type="text/css">
	.st0{fill:url(#路径_8_1_);}
</style>
<linearGradient id="路径_8_1_" gradientUnits="userSpaceOnUse" x1="4.6859" y1="27.1115" x2="27.6742" y2="7.8221">
	<stop  offset="0" style="stop-color:#EE741B"/>
	<stop  offset="0.1511" style="stop-color:#EE781D"/>
	<stop  offset="0.3243" style="stop-color:#EE8423"/>
	<stop  offset="0.5085" style="stop-color:#ED962E"/>
	<stop  offset="0.7004" style="stop-color:#ECAD3E"/>
	<stop  offset="0.8962" style="stop-color:#EAC954"/>
	<stop  offset="1" style="stop-color:#E7D761"/>
</linearGradient>
<path id="路径_8" class="st0" d="M24.1,28.1H6.8c-1.6,0-2.9-1.3-2.9-2.9V10.4c0-1.6,1.3-2.9,2.9-2.9c0,0,0,0,0,0h17.3
	c1.6,0,2.8,1.3,2.9,2.8v0c0,0,0,0,0,0.1v3.4l3.1-1.6c0.4-0.2,0.9-0.2,1.3,0c0.4,0.2,0.6,0.7,0.6,1.1v8.8c0,0.7-0.6,1.3-1.3,1.3
	c0,0,0,0,0,0c-0.2,0-0.4-0.1-0.6-0.2L27,21.8v3.4c0,0,0,0.1,0,0.1v0.1C26.9,26.9,25.6,28.1,24.1,28.1L24.1,28.1z M9.1,10.9
	c-1.4,0-2.6,1.2-2.6,2.6s1.2,2.6,2.6,2.6c1.4,0,2.6-1.2,2.6-2.6C11.7,12.1,10.5,10.9,9.1,10.9C9.1,10.9,9.1,10.9,9.1,10.9z"/>
</svg>
