<?xml version="1.0" encoding="utf-8"?>
<!-- Generator: Adobe Illustrator 24.0.1, SVG Export Plug-In . SVG Version: 6.00 Build 0)  -->
<svg version="1.1" id="图层_1" xmlns="http://www.w3.org/2000/svg" xmlns:xlink="http://www.w3.org/1999/xlink" x="0px" y="0px"
	 viewBox="0 0 34 34" style="enable-background:new 0 0 34 34;" xml:space="preserve">
<style type="text/css">
	.st0{fill:url(#路径_20_1_);}
</style>
<linearGradient id="路径_20_1_" gradientUnits="userSpaceOnUse" x1="8.8525" y1="26.2583" x2="22.1196" y2="3.279" gradientTransform="matrix(1 0 0 -1 0 34)">
	<stop  offset="0" style="stop-color:#0075FF"/>
	<stop  offset="6.869733e-02" style="stop-color:#037DFB"/>
	<stop  offset="0.4807" style="stop-color:#13A6E4"/>
	<stop  offset="0.8052" style="stop-color:#1DC0D5"/>
	<stop  offset="1" style="stop-color:#21C9D0"/>
</linearGradient>
<path id="路径_20" class="st0" d="M15.3,18.3l-4.8-2.8c-0.4-0.2-0.8-0.2-1.2,0l-4.9,2.8c-0.4,0.2-0.6,0.6-0.6,1V25
	c0,0.4,0.3,0.8,0.6,1l4.9,3c0.4,0.2,0.8,0.2,1.2,0l4.8-2.8c0.4-0.2,0.6-0.6,0.5-1v-5.7C15.9,19,15.7,18.6,15.3,18.3z M30,18.3
	l-4.9-2.8c-0.4-0.2-0.8-0.2-1.2,0L19,18.3c-0.4,0.2-0.6,0.6-0.6,1V25c0,0.4,0.2,0.8,0.6,1l4.9,2.8c0.4,0.2,0.8,0.2,1.2,0l4.8-2.8
	c0.4-0.2,0.6-0.6,0.6-1v-5.7C30.6,19,30.3,18.6,30,18.3z M22.6,6.1l-4.8-2.8c-0.4-0.2-0.8-0.2-1.2,0l-4.9,2.8
	c-0.4,0.2-0.6,0.6-0.6,1v5.7c0,0.4,0.3,0.8,0.6,1l4.9,2.8c0.4,0.2,0.8,0.2,1.2,0l4.8-2.8c0.4-0.2,0.6-0.6,0.5-1V7.2
	C23.2,6.8,23,6.3,22.6,6.1L22.6,6.1z"/>
</svg>
