<?xml version="1.0" encoding="utf-8"?>
<!-- Generator: Adobe Illustrator 24.0.1, SVG Export Plug-In . SVG Version: 6.00 Build 0)  -->
<svg version="1.1" id="图层_1" xmlns="http://www.w3.org/2000/svg" xmlns:xlink="http://www.w3.org/1999/xlink" x="0px" y="0px"
	 viewBox="0 0 34 34" style="enable-background:new 0 0 34 34;" xml:space="preserve">
<style type="text/css">
	.st0{fill:#FFFFFF;}
</style>
<path class="st0" d="M23,7.3c-3.7-2-8.3-2-11.9,0c-6.4,3.5-7.7,11.1-3.8,16.2l-2.1,3.3c-0.4,0.7,0.1,1.3,0.8,1.3l10.7,0.1
	c3.1,0,6.2-1,8.6-3.2C30.9,20,30,11.3,23,7.3z M17.1,17.4c0,0.7-0.6,1.2-1.3,1.2s-1.3-0.6-1.3-1.2V15c0-0.7,0.6-1.2,1.3-1.2
	s1.3,0.6,1.3,1.2V17.4z M23.8,17.4c0,0.7-0.6,1.2-1.3,1.2c-0.7,0-1.3-0.6-1.3-1.2V15c0-0.7,0.6-1.2,1.3-1.2c0.7,0,1.3,0.6,1.3,1.2
	V17.4z"/>
</svg>
