<?xml version="1.0" encoding="utf-8"?>
<!-- Generator: Adobe Illustrator 24.0.1, SVG Export Plug-In . SVG Version: 6.00 Build 0)  -->
<svg version="1.1" id="图层_1" xmlns="http://www.w3.org/2000/svg" xmlns:xlink="http://www.w3.org/1999/xlink" x="0px" y="0px"
	 viewBox="0 0 18 18" style="enable-background:new 0 0 18 18;" xml:space="preserve">
<style type="text/css">
	.st0{fill:#040000;}
</style>
<path id="路径_3" class="st0" d="M14.4,15.7H5.2c-1.3,0.1-2.5-0.8-2.7-2.1V6.2C2.7,4.9,3.9,4,5.2,4.1h9.2c1.3-0.1,2.5,0.8,2.7,2.1
	v7.3C16.9,14.9,15.7,15.8,14.4,15.7z M5.1,5.2c-0.6-0.1-1.2,0.4-1.3,1v7.3c0.1,0.6,0.7,1.1,1.3,1h9.4c0.6,0.1,1.2-0.4,1.3-1V6.2
	c-0.1-0.6-0.7-1.1-1.3-1H5.1z"/>
</svg>
