<?xml version="1.0" encoding="utf-8"?>
<!-- Generator: Adobe Illustrator 24.0.1, SVG Export Plug-In . SVG Version: 6.00 Build 0)  -->
<svg version="1.1" id="图层_1" xmlns="http://www.w3.org/2000/svg" xmlns:xlink="http://www.w3.org/1999/xlink" x="0px" y="0px"
	 viewBox="0 0 34 34" style="enable-background:new 0 0 34 34;" xml:space="preserve">
<style type="text/css">
	.st0{fill:url(#路径_5_1_);}
</style>
<g id="组_12" transform="translate(-67.911 -115.68)">
	<linearGradient id="路径_5_1_" gradientUnits="userSpaceOnUse" x1="73.9881" y1="135.5625" x2="95.8339" y2="128.0403">
		<stop  offset="0" style="stop-color:#0075FF"/>
		<stop  offset="6.869733e-02" style="stop-color:#037DFB"/>
		<stop  offset="0.4807" style="stop-color:#13A6E4"/>
		<stop  offset="0.8052" style="stop-color:#1DC0D5"/>
		<stop  offset="1" style="stop-color:#21C9D0"/>
	</linearGradient>
	<path id="路径_5" class="st0" d="M96.4,129.9l-4.1-7.1c-0.7-1.2-1.9-1.9-3.3-1.9h-8.2c-1.3,0-2.6,0.7-3.3,1.9l-4.1,7.1
		c-0.7,1.2-0.7,2.6,0,3.8l4.1,7.1c0.7,1.2,1.9,1.9,3.3,1.9H89c1.3,0,2.6-0.7,3.3-1.9l4.1-7.1C97.1,132.5,97.1,131.1,96.4,129.9z
		 M85.3,136.4c-2.5,0-4.6-2.1-4.6-4.6c0-2.5,2.1-4.6,4.6-4.6c2.5,0,4.6,2.1,4.6,4.6l0,0C89.9,134.3,87.9,136.4,85.3,136.4
		C85.3,136.4,85.3,136.4,85.3,136.4L85.3,136.4z"/>
</g>
</svg>
