<?xml version="1.0" encoding="utf-8"?>
<!-- Generator: Adobe Illustrator 24.0.1, SVG Export Plug-In . SVG Version: 6.00 Build 0)  -->
<svg version="1.1" id="图层_1" xmlns="http://www.w3.org/2000/svg" xmlns:xlink="http://www.w3.org/1999/xlink" x="0px" y="0px"
	 viewBox="0 0 34 34" style="enable-background:new 0 0 34 34;" xml:space="preserve">
<style type="text/css">
	.st0{fill:url(#SVGID_1_);}
</style>
<linearGradient id="SVGID_1_" gradientUnits="userSpaceOnUse" x1="4.5782" y1="17.3093" x2="30.0779" y2="17.3093">
	<stop  offset="0" style="stop-color:#D12327"/>
	<stop  offset="1" style="stop-color:#F19699"/>
</linearGradient>
<path class="st0" d="M25.5,20.3c-1.5,0-2.9,0.7-3.8,1.9l-6.2-2.7c0.3-0.7,0.4-1.4,0.4-2.1c0-0.3,0-0.5-0.1-0.8l4.1-3.2
	c0.7,0.4,1.5,0.6,2.3,0.6c0,0,0,0,0,0c1.2,0,2.3-0.4,3.2-1.2c0.9-0.8,1.4-1.9,1.4-3.1l0-0.2c0-2.5-2.1-4.5-4.6-4.5c0,0,0,0,0,0
	c-2.5,0-4.5,2-4.5,4.5c0,0.4,0.1,0.8,0.2,1.2l-3.4,2.6c-1.8-2.1-4.8-2.6-7.2-1.1c-1.6,1-2.6,2.9-2.6,4.8c0,1.5,0.6,2.9,1.7,4
	c1.1,1.1,2.5,1.7,4,1.7c1,0,1.9-0.2,2.8-0.7l8,3.4c0.2,1,0.7,2,1.5,2.7c0.8,0.7,1.9,1.1,3,1.1c0.1,0,0.2,0,0.3,0
	c1.2-0.1,2.3-0.6,3.1-1.5c0.8-0.9,1.2-2.1,1.1-3.3C29.9,22.2,27.9,20.3,25.5,20.3z"/>
</svg>
