<?xml version="1.0" encoding="utf-8"?>
<!-- Generator: Adobe Illustrator 24.0.1, SVG Export Plug-In . SVG Version: 6.00 Build 0)  -->
<svg version="1.1" id="图层_1" xmlns="http://www.w3.org/2000/svg" xmlns:xlink="http://www.w3.org/1999/xlink" x="0px" y="0px"
	 viewBox="0 0 34 34" style="enable-background:new 0 0 34 34;" xml:space="preserve">
<style type="text/css">
	.st0{fill:#FFFFFF;}
</style>
<path class="st0" d="M3.1,24c0.1-1.8,0.8-3.5,2.2-4.9l2.2-2.2c0.7-0.7,1.8-0.7,2.5,0c0.7,0.7,0.7,1.8,0,2.5l-2.2,2.2
	c-0.7,0.7-1.1,1.6-1.1,2.5c0,0.6,0.1,1.5,0.8,2.3c0.7,0.7,1.5,0.8,2.1,0.8c0.9,0,1.9-0.5,2.7-1.1l5.6-5.6c1.4-1.4,1.5-3.5,0.3-4.8
	c-0.7-0.7-0.7-1.8,0-2.5c0.7-0.7,1.8-0.7,2.5,0c1.3,1.2,1.9,2.9,1.9,4.7c0,1.8-0.8,3.8-2.2,5.2l-5.6,5.6c-1.4,1.4-3.3,2.2-5.2,2.2
	c-1.8,0-3.4-0.7-4.7-1.9C3.6,27.7,2.9,25.9,3.1,24L3.1,24z"/>
<path class="st0" d="M23.8,14.6C23.9,14.6,23.9,14.6,23.8,14.6l1.5-1.5l0.8-0.8c0.7-0.7,1.1-1.5,1.2-2.5c0-0.6-0.1-1.5-0.8-2.3
	c-0.6-0.6-1.3-0.9-2.1-0.8c-0.9,0-1.9,0.4-2.7,1.1L16,13.4c-1.4,1.4-1.5,3.5-0.3,4.8c0.7,0.7,0.7,1.8,0,2.5c-0.7,0.7-1.8,0.7-2.5,0
	c-1.3-1.2-1.9-2.9-1.9-4.7c0-1.8,0.8-3.8,2.2-5.2l5.6-5.6C20.5,3.9,22.4,3,24.3,3c1.8,0,3.4,0.7,4.7,1.9c1.3,1.3,2,3.1,1.9,5
	c-0.1,1.8-0.8,3.5-2.2,4.9l-0.8,0.8l-1.5,1.5c-0.7,0.7-1.8,0.7-2.5,0C23.2,16.4,23.1,15.3,23.8,14.6L23.8,14.6z"/>
</svg>
