<?xml version="1.0" encoding="utf-8"?>
<!-- Generator: Adobe Illustrator 24.0.1, SVG Export Plug-In . SVG Version: 6.00 Build 0)  -->
<svg version="1.1" id="图层_1" xmlns="http://www.w3.org/2000/svg" xmlns:xlink="http://www.w3.org/1999/xlink" x="0px" y="0px"
	 viewBox="0 0 34 34" style="enable-background:new 0 0 34 34;" xml:space="preserve">
<style type="text/css">
	.st0{fill:#5ACC9B;}
	.st1{fill:#6CCBFF;}
	.st2{fill:#FFD766;}
	.st3{fill:#FF5562;}
	.st4{fill:#FFFFFF;}
</style>
<g>
	<path class="st0" d="M28.4,28.4H5.6c-0.7,0-1.3-0.5-1.3-1.1v-6.5h25.2v6.5C29.6,28,29.1,28.4,28.4,28.4L28.4,28.4z"/>
	<path class="st1" d="M5.6,5.7h22.7c0.7,0,1.3,0.5,1.3,1.1v6.5H4.4V6.8C4.4,6.2,4.9,5.7,5.6,5.7z"/>
	<path class="st2" d="M4.4,13.3h25.2v7.6H4.4V13.3z"/>
	<path class="st3" d="M12.8,5.7h8.4v22.7h-8.4V5.7z"/>
	<path class="st4" d="M15.2,7h1.7v1.3h-1.7V7z M16.9,5.7h1.7V7h-1.7V5.7z M16.9,8.2h1.7v1.3h-1.7V8.2z M15.2,9.5h1.7v1.3h-1.7V9.5z
		 M16.9,10.8h1.7V12h-1.7V10.8z M15.2,12h1.7v1.3h-1.7V12z M16.9,13.3h1.7v1.3h-1.7V13.3z M15.2,14.6h1.7v1.3h-1.7V14.6z M16.9,15.8
		h1.7v1.3h-1.7V15.8z M15.2,17.1h1.7v1.3h-1.7V17.1z M16.9,18.3h1.7v1.3h-1.7V18.3z M15.2,19.6h1.7v1.3h-1.7V19.6z M16.9,20.9h1.7
		v1.3h-1.7V20.9z M15.2,22.1h1.7v1.3h-1.7V22.1z M16.9,23.4h1.7v1.3h-1.7V23.4z M15.2,24.7h1.7v1.3h-1.7V24.7z M15.2,27.2h1.7v1.3
		h-1.7V27.2z M16.9,25.9h1.7v1.3h-1.7V25.9z"/>
</g>
</svg>
